PathFileType	4	(X/Y/Z)	OpenSim_Sub09_CSStiffKnee_Magnet.trc
DataRate	CameraRate	NumFrames	NumMarkers	Units	OrigDataRate	OrigDataStartFrame	OrigNumFrames
100	100	40	8	m	100	3564	7127
Frame#	Time	torso_imu_offset_imu	pelvis_imu_offset_imu	tibia_r_imu_offset_imu	femur_r_imu_offset_imu	tibia_l_imu_offset_imu	femur_l_imu_offset_imu	toes_r_imu_offset_imu	toes_l_imu_offset_imu
				X1	Y1	Z1	X2	Y2	Z2	X3	Y3	Z3	X4	Y4	Z4	X5	Y5	Z5	X6	Y6	Z6	X7	Y7	Z7	X8		Y8	Z8	

3564	35.63000000	-0.91346367	-0.19213773	0.14262620	-0.53843563	0.26362640	-0.72134222	-0.64557357	-0.52093015	-0.09154001	-0.82885080	-0.20595460	0.02891009	-0.33311411	0.76510271	0.10963679	-0.56770056	0.37682254	0.10953494	-0.69059512	-0.09209097	-0.36995622	-0.82729530	0.11433771	0.00646773
3565	35.64000000	-0.91576336	-0.19420524	0.14377691	-0.53438652	0.26012038	-0.73009875	-0.64840443	-0.52707441	-0.08654659	-0.82236379	-0.21654220	0.03378181	-0.32294029	0.76466228	0.12022538	-0.56958492	0.37440130	0.10456870	-0.68426960	-0.10185501	-0.36374262	-0.82413841	0.13217595	0.01806574
3566	35.65000000	-0.91471467	-0.19104434	0.14344032	-0.53496830	0.24491128	-0.73280633	-0.64839269	-0.52928412	-0.08694539	-0.82137825	-0.22871530	0.03683280	-0.31553243	0.76413619	0.13325781	-0.57314080	0.36865715	0.10558480	-0.68360131	-0.10158108	-0.36744763	-0.81861521	0.14406190	0.03772212
3567	35.66000000	-0.91450210	-0.19287895	0.14527343	-0.53894740	0.23781473	-0.73849306	-0.64503259	-0.53819191	-0.09265511	-0.81617356	-0.24255264	0.04262911	-0.30970380	0.76818847	0.14495962	-0.57824883	0.37012614	0.10017074	-0.68767180	-0.10486678	-0.36654442	-0.82122378	0.15503384	0.04660928
3568	35.67000000	-0.92146805	-0.19478650	0.13884996	-0.54131842	0.23320193	-0.74582226	-0.64610746	-0.54177772	-0.09235012	-0.81705733	-0.25228369	0.04975153	-0.29870737	0.76731456	0.15460341	-0.57972727	0.36621339	0.09630459	-0.69133512	-0.11145049	-0.36397911	-0.82143926	0.15468776	0.05600661
3569	35.68000000	-0.91814365	-0.19320911	0.13575675	-0.54482606	0.22359917	-0.74431690	-0.64779056	-0.54117963	-0.08652292	-0.81371044	-0.25740728	0.04670480	-0.29404391	0.76891304	0.16062237	-0.58860539	0.36002004	0.09362126	-0.68615743	-0.10676942	-0.36688737	-0.82341457	0.15146329	0.05275984
3570	35.69000000	-0.91539590	-0.18930014	0.13566327	-0.54711773	0.21322932	-0.74283935	-0.64216423	-0.55078601	-0.07910967	-0.80534581	-0.27216519	0.04922751	-0.29143780	0.76519424	0.16162539	-0.59535752	0.35868065	0.08403319	-0.68720629	-0.10638387	-0.36405710	-0.82247281	0.14435208	0.04042379
3571	35.70000000	-0.91824138	-0.18687089	0.13952995	-0.55108204	0.21281590	-0.74465211	-0.63816964	-0.55496542	-0.07520832	-0.80540656	-0.28194681	0.05263609	-0.29533409	0.76969954	0.16018213	-0.59894658	0.35007825	0.07304679	-0.69085860	-0.10774304	-0.36236430	-0.83072028	0.12716251	0.03354180
3572	35.71000000	-0.91688790	-0.19344031	0.13786993	-0.55326583	0.20286081	-0.74590856	-0.63841062	-0.56125127	-0.07578478	-0.80515470	-0.28823220	0.05739928	-0.30441738	0.76735654	0.15274239	-0.60284328	0.35217422	0.07338591	-0.69062270	-0.10711667	-0.36335573	-0.83547166	0.11214571	0.03102127
3573	35.72000000	-0.91549257	-0.18977412	0.13581902	-0.55727320	0.19716356	-0.73958019	-0.63326832	-0.56761871	-0.08051745	-0.79909202	-0.30059906	0.05688226	-0.31337619	0.76102585	0.13477514	-0.60034751	0.35720183	0.08301336	-0.69285944	-0.10899216	-0.35954732	-0.83668990	0.08920979	0.00468386
3574	35.73000000	-0.91967487	-0.19015965	0.13599386	-0.55744384	0.19418124	-0.73914071	-0.62937769	-0.56795837	-0.07983330	-0.79369867	-0.30776079	0.06007663	-0.33438832	0.75878619	0.12874595	-0.60612669	0.35504619	0.08434057	-0.69122710	-0.10903215	-0.35909440	-0.83518570	0.07562509	-0.00580943
3575	35.74000000	-0.91872641	-0.19618029	0.13792004	-0.56364676	0.19067109	-0.73984900	-0.62981081	-0.56979562	-0.08079867	-0.79110139	-0.31989039	0.06107886	-0.34684649	0.75543140	0.12634445	-0.60206334	0.35562101	0.07977572	-0.69299957	-0.11249996	-0.35386777	-0.83349919	0.06836872	-0.02324940
3576	35.75000000	-0.92074145	-0.19399369	0.13910044	-0.55891001	0.17913513	-0.74277434	-0.62542678	-0.56913458	-0.09323174	-0.78728886	-0.33232250	0.05646923	-0.35997773	0.74780472	0.12114613	-0.60508402	0.34793048	0.08765108	-0.68850394	-0.11266672	-0.35339045	-0.83673627	0.05716602	-0.04848755
3577	35.76000000	-0.92546531	-0.18930482	0.13510539	-0.56430959	0.17465189	-0.74511611	-0.62927974	-0.57686856	-0.09984552	-0.78131573	-0.33912856	0.05423818	-0.37269670	0.73828929	0.10957306	-0.60519630	0.34844408	0.09844785	-0.69839372	-0.10961579	-0.35504497	-0.84025873	0.05184111	-0.06813203
3578	35.77000000	-0.91852678	-0.18470343	0.13303470	-0.57118232	0.16736311	-0.73973657	-0.62973650	-0.57394693	-0.10652127	-0.77452674	-0.34573971	0.05020744	-0.38524148	0.73286945	0.09953610	-0.60928741	0.35128269	0.09237198	-0.69748923	-0.11210916	-0.35256878	-0.83700471	0.05472204	-0.09133496
3579	35.78000000	-0.91676301	-0.18380950	0.13712253	-0.56477612	0.16743582	-0.74329878	-0.63080254	-0.57505300	-0.10686211	-0.76933620	-0.35984950	0.04983203	-0.40779298	0.72764332	0.09173787	-0.61173272	0.34685101	0.10046882	-0.69581682	-0.11563910	-0.35309874	-0.83429026	0.05002971	-0.11718908
3580	35.79000000	-0.92225253	-0.18244503	0.13819532	-0.56751005	0.16188585	-0.75029661	-0.62741144	-0.57572044	-0.11696383	-0.76501143	-0.36748668	0.04686431	-0.41915476	0.71819586	0.08141894	-0.61232528	0.34629510	0.09798531	-0.69740833	-0.11424611	-0.34668819	-0.82836901	0.04770156	-0.12492596
3581	35.80000000	-0.92130952	-0.18023535	0.13812996	-0.57213869	0.15736876	-0.74736307	-0.61920626	-0.58396632	-0.12486296	-0.76048187	-0.38123096	0.04311759	-0.43597146	0.71544881	0.07156036	-0.61689109	0.34150822	0.10199636	-0.69662312	-0.11473952	-0.35144021	-0.82620829	0.04970298	-0.14986242
3582	35.81000000	-0.92266729	-0.17817950	0.13617189	-0.57041030	0.15331949	-0.74496243	-0.61953748	-0.58673683	-0.12665794	-0.75568672	-0.39303391	0.03505845	-0.45171554	0.70504141	0.05441603	-0.61723984	0.33624356	0.10728513	-0.69889541	-0.11847744	-0.34445918	-0.82626595	0.05450824	-0.17598121
3583	35.82000000	-0.92124520	-0.17593675	0.13695321	-0.56872225	0.14542323	-0.74773108	-0.61863770	-0.59025296	-0.12914430	-0.75327429	-0.39723663	0.03088803	-0.46593830	0.69489351	0.03510730	-0.62132282	0.33049818	0.11104121	-0.69608678	-0.12309435	-0.34564077	-0.81792046	0.05253053	-0.20053061
3584	35.83000000	-0.92383902	-0.17311622	0.13878192	-0.57280606	0.14644062	-0.74383172	-0.61811155	-0.58696648	-0.12988859	-0.74837101	-0.40395084	0.02795981	-0.48036924	0.68264989	0.02503332	-0.62898029	0.32378397	0.11249801	-0.69443222	-0.12277212	-0.34707736	-0.81356116	0.04943090	-0.21515180
3585	35.84000000	-0.92599994	-0.16444982	0.14304564	-0.57230512	0.14091022	-0.74743415	-0.61652215	-0.59417129	-0.12899231	-0.73933293	-0.41469425	0.02289412	-0.49136230	0.67411050	0.01616854	-0.63153186	0.31689387	0.11342507	-0.69524042	-0.12080025	-0.34569957	-0.81053753	0.04605134	-0.23020025
3586	35.85000000	-0.92399469	-0.16448332	0.14232340	-0.57075399	0.13510876	-0.75189123	-0.61367848	-0.59650106	-0.13261930	-0.73468483	-0.42086026	0.02274287	-0.50433934	0.66637611	0.01467328	-0.63670311	0.31237360	0.11775605	-0.69279651	-0.12712930	-0.34510553	-0.80338134	0.04184866	-0.24959725
3587	35.86000000	-0.92278726	-0.16030110	0.14409699	-0.57314870	0.12968334	-0.75180840	-0.61412109	-0.59401585	-0.13567465	-0.73658020	-0.43298246	0.01907271	-0.51519658	0.65758995	0.01234563	-0.64162604	0.30482088	0.12135856	-0.69473795	-0.12325282	-0.33960372	-0.80023772	0.03710446	-0.26280113
3588	35.87000000	-0.92741076	-0.15837390	0.14909540	-0.57046351	0.12439243	-0.75233973	-0.60886289	-0.59949786	-0.13871182	-0.73277614	-0.43469119	0.02036068	-0.53080569	0.64704073	0.00961169	-0.64694930	0.29605643	0.12025771	-0.69109903	-0.12566034	-0.34576721	-0.79457086	0.03527142	-0.28442321
3589	35.88000000	-0.92471348	-0.15487967	0.15166446	-0.56649262	0.12224196	-0.76080877	-0.60684189	-0.60314034	-0.14518231	-0.72573598	-0.43622277	0.01573472	-0.53670529	0.63751019	0.00970675	-0.65489959	0.28529804	0.11774995	-0.69410777	-0.12893455	-0.34585324	-0.78921521	0.02812642	-0.29632203
3590	35.89000000	-0.92687565	-0.14529042	0.15326333	-0.56804182	0.11886921	-0.76375359	-0.60539099	-0.60326287	-0.14908978	-0.72006421	-0.45076970	0.01425319	-0.55064971	0.62885803	0.01163080	-0.66271906	0.27733605	0.11666233	-0.68843989	-0.12526275	-0.34112355	-0.78232642	0.02028823	-0.31087605
3591	35.90000000	-0.92726430	-0.14448893	0.15692207	-0.56678787	0.11266597	-0.76115783	-0.60628563	-0.60338147	-0.14865175	-0.71942929	-0.45628226	0.01131476	-0.56398562	0.61936628	0.01770557	-0.66414769	0.27039844	0.12124288	-0.68868332	-0.13190466	-0.34515491	-0.78039646	0.00324831	-0.31580986
3592	35.91000000	-0.92578473	-0.13684106	0.16180375	-0.55391505	0.10925204	-0.75882716	-0.60631838	-0.60283726	-0.15285507	-0.71559488	-0.45879066	0.00991599	-0.57600909	0.60083614	0.02547807	-0.67536700	0.25564601	0.11859441	-0.69009354	-0.13305746	-0.34232926	-0.77548519	-0.01492444	-0.32754105
3593	35.92000000	-0.92888709	-0.13925920	0.16254877	-0.55263203	0.10779164	-0.76906594	-0.60089564	-0.60707284	-0.15212823	-0.70603652	-0.46450865	0.01023130	-0.58699755	0.58695811	0.02156741	-0.67818516	0.24641367	0.12068907	-0.68278009	-0.13130622	-0.34569240	-0.76698171	-0.02386076	-0.33912242
3594	35.93000000	-0.92323612	-0.13050506	0.16481687	-0.55960214	0.10386978	-0.77016439	-0.60430530	-0.61533036	-0.15254592	-0.70517380	-0.47164166	0.01246116	-0.60089939	0.57671719	0.02162298	-0.68433482	0.24023434	0.12358525	-0.68662673	-0.13421644	-0.34965314	-0.76526591	-0.04000914	-0.34884989
3595	35.94000000	-0.92738714	-0.12698840	0.17128742	-0.55376089	0.09997603	-0.77244714	-0.59717157	-0.61238015	-0.15437909	-0.70554285	-0.47339988	0.01238630	-0.60444739	0.56464849	0.02460008	-0.68684119	0.22344034	0.12969416	-0.68584866	-0.14105629	-0.35118287	-0.76121012	-0.06280822	-0.34879904
3596	35.95000000	-0.92403640	-0.13067783	0.17701016	-0.55777228	0.09423050	-0.77293155	-0.59461461	-0.61750441	-0.16222064	-0.69900845	-0.48384747	0.01815791	-0.61704610	0.54720513	0.03165125	-0.68820223	0.21529318	0.13290305	-0.68071608	-0.14031671	-0.35302563	-0.75664830	-0.08000884	-0.35284355
3597	35.96000000	-0.92549739	-0.11932258	0.17742630	-0.55412655	0.08884266	-0.76798773	-0.59671261	-0.62085136	-0.16367929	-0.69586684	-0.48931103	0.02276762	-0.63419442	0.53519591	0.03458304	-0.69709051	0.20878646	0.13893239	-0.67756113	-0.14285868	-0.35813037	-0.74478514	-0.09296149	-0.36920622
3598	35.97000000	-0.92567142	-0.11616048	0.17842820	-0.55661617	0.08654408	-0.77633123	-0.59266365	-0.62023790	-0.16013646	-0.69220827	-0.49141111	0.02223207	-0.64808439	0.51858328	0.03588730	-0.69900840	0.19799525	0.14143037	-0.67949631	-0.14216691	-0.36287555	-0.73415732	-0.10812287	-0.37459673
3599	35.98000000	-0.92762535	-0.11146690	0.18155312	-0.55842883	0.08410631	-0.77315068	-0.59116479	-0.62933172	-0.17376389	-0.68940497	-0.49883574	0.02785092	-0.65443559	0.50749630	0.04239429	-0.70012978	0.18737573	0.15299822	-0.67648250	-0.14567011	-0.35787421	-0.73254774	-0.12062335	-0.38035074
3600	35.99000000	-0.93199410	-0.11058230	0.17870620	-0.55181462	0.08417439	-0.77252641	-0.59057994	-0.62419631	-0.17653192	-0.68584154	-0.49748392	0.03230431	-0.66048555	0.49453254	0.03623632	-0.69932946	0.17538173	0.15714489	-0.67557214	-0.15207911	-0.36659879	-0.72051946	-0.12899898	-0.39192969
3601	36.00000000	-0.92738096	-0.10195249	0.18539544	-0.54947871	0.08027203	-0.76985314	-0.58614711	-0.62649107	-0.17847150	-0.68265443	-0.50457681	0.03086554	-0.67328716	0.47889334	0.03796137	-0.70625947	0.17186242	0.15956255	-0.67159811	-0.15934392	-0.37233888	-0.71474728	-0.14149529	-0.40114671
3602	36.01000000	-0.92447710	-0.10076509	0.18518922	-0.55208952	0.08248234	-0.77073655	-0.58370634	-0.63757187	-0.17805799	-0.68008448	-0.51086861	0.03089845	-0.68148571	0.46155231	0.03987544	-0.71007450	0.16211182	0.16463537	-0.67490061	-0.15697899	-0.37488478	-0.70803470	-0.15140015	-0.41215261
3603	36.02000000	-0.92865726	-0.09848661	0.18146307	-0.55119108	0.08365297	-0.77909833	-0.57820829	-0.63679452	-0.17771729	-0.66909288	-0.51751366	0.02727103	-0.68855132	0.44724363	0.04905595	-0.71370678	0.14965697	0.16955772	-0.67963164	-0.15948605	-0.38016909	-0.69939213	-0.16108913	-0.41857775
